# AST/ASF file generated using VICON BodyLanguage
# -----------------------------------------------
:version 1.10
:name VICON
:units
  mass 1.0
  length 0.45
  angle deg
:documentation
   .ast/.asf automatically generated from VICON data using
   VICON BodyBuilder and BodyLanguage model FoxedUp or BRILLIANT.MOD
:root
   order TX TY TZ RX RY RZ
   axis XYZ
   position 0 0 0  
   orientation 0 0 0 
:bonedata
  begin
     id 1 
     name lhipjoint
     direction 0.690799 -0.707083 0.151096 
     length 2.54797 
     axis 0 0 0  XYZ
  end
  begin
     id 2 
     name lfemur
     direction 0.34202 -0.939693 0  
     length 7.21646  
     axis 0 0 20  XYZ
    dof rx ry rz
    limits (-160.0 20.0)
           (-70.0 70.0)
           (-60.0 70.0)
  end
  begin
     id 3 
     name ltibia
     direction 0.34202 -0.939693 0   
     length 8.16759   
     axis 0 0 20   XYZ
    dof rx
    limits (-10.0 170.0)
  end
  begin
     id 4 
     name lfoot
     direction 0.0487203 -0.133858 0.989802   
     length 1.93375   
     axis -90 7.62852e-016 20   XYZ
    dof rx rz
    limits (-45.0 90.0)
           (-70.0 20.0)
  end
  begin
     id 5 
     name ltoes
     direction 1.53453e-011 -4.21783e-011 1   
     length 0.979747   
     axis -90 7.62852e-016 20   XYZ
    dof rx
    limits (-90.0 20.0)
  end
  begin
     id 6 
     name rhipjoint
     direction -0.694693 -0.703425 0.150315   
     length 2.56122  
     axis 0 0 0  XYZ 
  end
  begin
     id 7 
     name rfemur
     direction -0.34202 -0.939693 0   
     length 7.36786   
     axis 0 0 -20   XYZ
    dof rx ry rz
    limits (-160.0 20.0)
           (-70.0 70.0)
           (-70.0 60.0)
  end
  begin
     id 8 
     name rtibia
     direction -0.34202 -0.939693 0   
     length 8.07288   
     axis 0 0 -20   XYZ
    dof rx
    limits (-10.0 170.0)
 end
 begin
     id 9 
     name rfoot
     direction -0.0428397 -0.117701 0.992125   
     length 1.88295  
     axis -90 -7.62852e-016 -20   XYZ
    dof rx rz
    limits (-45.0 90.0)
           (-20.0 70.0)
  end
  begin
     id 10 
     name rtoes
     direction -1.53456e-011 -4.2187e-011 1   
     length 0.955578   
     axis -90 -7.62852e-016 -20   XYZ
    dof rx
    limits (-90.0 20.0)
  end
  begin
     id 11 
     name lowerback
     direction 0.0288145 0.999398 -0.0193241   
     length 1.92149   
     axis 0 0 0   XYZ
    dof rx ry rz
    limits (-20.0 45.0)
           (-30.0 30.0)
           (-30.0 30.0)
  end
  begin
     id 12 
     name upperback
     direction 0.0233784 0.998099 0.0570278   
     length 1.90435   
     axis 0 0 0   XYZ
    dof rx ry rz
    limits (-20.0 45.0)
           (-30.0 30.0)
           (-30.0 30.0)
  end
  begin
     id 13 
     name thorax
     direction 0.0096694 0.997833 0.0650817   
     length 1.9111   
     axis 0 0 0   XYZ
    dof rx ry rz
    limits (-20.0 45.0)
           (-30.0 30.0)
           (-30.0 30.0)
  end
  begin
     id 14 
     name lowerneck
     direction 0.00516803 0.999916 0.0118722   
     length 1.74664   
     axis 0 0 0   XYZ
    dof rx ry rz
    limits (-20.0 45.0)
           (-30.0 30.0)
           (-30.0 30.0)
  end
  begin
     id 15 
     name upperneck
     direction -0.0510851 0.996117 -0.071696   
     length 1.68498   
     axis 0 0 0   XYZ
    dof rx ry rz
    limits (-20.0 45.0)
           (-30.0 30.0)
           (-30.0 30.0)
  end
  begin
     id 16
     name head
     direction -0.019188 0.999436 -0.0275702  
     length 1.83483  
     axis 0 0 0   XYZ
    dof rx ry rz
    limits (-20.0 45.0)
           (-30.0 30.0)
           (-30.0 30.0)
  end
  begin
     id 17 
     name lclavicle
     direction 0.967006 0.248456 -0.0562957  
     length 3.39395  
     axis 0 0 0   XYZ
    dof ry rz
    limits (-20.0 10.0)
           (0.0 20.0)
  end
  begin
     id 18 
     name lhumerus
     direction 1 -4.48962e-011 -5.62711e-019   
     length 5.24318   
     axis 180 -30 -90   XYZ
    dof rx ry rz
    limits (-60.0 90.0)
           (-90.0 90.0)
           (-90.0 90.0)
  end
  begin
     id 19
     name lradius
     direction 1 -4.48966e-011 7.90625e-027   
     length 2.98999   
     axis 180 -30 -90   XYZ
    dof rx
    limits (-10.0 170.0)
  end
  begin
     id 20
     name lwrist
     direction 1 -4.48959e-011 1.61068e-026   
     length 1.49499   
     axis -9.31229e-015 90 90   XYZ
    dof ry
    limits (-180.0 0.0)
 end
  begin
     id 21 
     name lhand
     direction 1 -4.49017e-011 3.22136e-026   
     length 0.726745   
     axis -2.0555e-014 90 90   XYZ
    dof rx rz
    limits (-90.0 90.0)
           (-45.0 45.0)
  end
  begin
     id 22 
     name lfingers
     direction 1 -4.4898e-011 6.44272e-026   
     length 0.58592   
     axis -4.11101e-014 90 90   XYZ
    dof rx
    limits (0.0 90.0)
  end
  begin
     id 23
     name lthumb
     direction 0.707107 -6.34922e-011 0.707107   
     length 0.841268   
     axis -90 45 2.85299e-015   XYZ
    dof rx rz
    limits (-45.0 45.0)
           (-45.0 45.0)
  end
  begin
     id 24 
     name rclavicle
     direction -0.972232 0.230238 0.0419005   
     length 3.40416  
     axis 0 0 0   XYZ 
    dof ry rz
    limits (-10.0 20.0)
           (-20.0 0.0)
  end
  begin
     id 25 
     name rhumerus
     direction -1 -4.48976e-011 2.48487e-027  
     length 5.37045   
     axis 180 30 90   XYZ
    dof rx ry rz
    limits (-90.0 60.0)
           (-90.0 90.0)
           (-90.0 90.0)
  end
  begin
     id 26 
     name rradius
     direction -1 -4.48942e-011 7.87951e-027   
     length 2.92792   
     axis 180 30 90   XYZ
    dof rx
    limits (-10.0 170.0)
  end
  begin
     id 27 
     name rwrist
     direction -1 -4.48969e-011 1.61068e-026   
     length 1.46396   
     axis -9.31229e-015 -90 -90   XYZ
    dof ry
    limits (-180.0 0.0)
  end
  begin
     id 28
     name rhand
     direction -1 -4.49043e-011 3.22136e-026   
     length 0.784497   
     axis -2.0555e-014 -90 -90   XYZ
    dof rx rz
    limits (-90.0 90.0)
           (-45.0 45.0)
  end
  begin
     id 29
     name rfingers
     direction -1 -4.48823e-011 6.44272e-026   
     length 0.632482   
     axis -4.11101e-014 -90 -90   XYZ
    dof rx
    limits (0.0 90.0)
  end
  begin
     id 30
     name rthumb
     direction -0.707107 -6.34923e-011 0.707107   
     length 0.908121   
     axis -90 -45 -2.85299e-015   XYZ
    dof rx rz
    limits (-45.0 45.0)
           (-45.0 45.0)
  end
:hierarchy
  begin
    root lhipjoint rhipjoint lowerback
    lhipjoint lfemur
    lfemur ltibia
    ltibia lfoot
    lfoot ltoes
    rhipjoint rfemur
    rfemur rtibia
    rtibia rfoot
    rfoot rtoes
    lowerback upperback
    upperback thorax
    thorax lowerneck lclavicle rclavicle
    lowerneck upperneck
    upperneck head
    lclavicle lhumerus
    lhumerus lradius
    lradius lwrist
    lwrist lhand lthumb
    lhand lfingers
    rclavicle rhumerus
    rhumerus rradius
    rradius rwrist
    rwrist rhand rthumb
    rhand rfingers
  end

#!OML:ASF E:\Style6\Style6.ASF
:FULLY-SPECIFIED
:DEGREES
1501
root 0.163534 17.7702 0.0176299 11.1931 13.6826 -6.77017
lowerback 11.0045 0.376272 3.09895
upperback -5.19441 1.00485 -0.0517254
thorax -11.8046 0.236166 -2.01509
lowerneck -7.56388 -0.180245 4.16053
upperneck 1.04598 -0.404096 -6.43805
head 1.64128 -0.327141 -2.83143
rclavicle 3.18055e-015 -2.38542e-014
rhumerus 16.6529 -34.5479 -6.10272
rradius 43.1491
rwrist 14.891
rhand 3.74519 0.238131
rfingers 7.12502
rthumb 29.1724 -27.4958
lclavicle 3.18055e-015 -2.38542e-014
lhumerus -24.7896 26.5826 21.9561
lradius 54.2144
lwrist 26.5467
lhand -19.0854 35.2052
lfingers 7.12502
lthumb 7.22268 65.0619
rfemur -24.3741 -7.17016 27.7316
rtibia 26.959
rfoot -9.79619 -8.7709
rtoes -9.20441
lfemur -32.9621 -1.32367 -8.7268
ltibia 37.0437
lfoot -12.7509 -6.97497
ltoes -19.5167
1502
root 0.169324 17.7753 0.0221784 11.101 13.9156 -6.85066
lowerback 11.0827 0.410082 3.13436
upperback -5.21172 1.05789 -0.0672237
thorax -11.868 0.256401 -2.06462
lowerneck -7.50815 -0.177809 4.19933
upperneck 0.896451 -0.408552 -6.44882
head 1.58238 -0.327407 -2.83973
rclavicle -2.17669e-014 -4.77083e-015
rhumerus 16.8121 -34.5607 -6.14778
rradius 43.0022
rwrist 15.0348
rhand 3.7425 0.216446
rfingers 7.12502
rthumb 29.1698 -27.518
lclavicle -2.17669e-014 -4.77083e-015
lhumerus -24.9681 26.6832 21.7961
lradius 54.1356
lwrist 26.5431
lhand -19.0049 35.1779
lfingers 7.12502
lthumb 7.30037 65.032
rfemur -24.1559 -7.21802 27.799
rtibia 26.7791
rfoot -9.74342 -8.94106
rtoes -9.87623
lfemur -32.9032 -1.37849 -8.64783
ltibia 36.9989
lfoot -12.7554 -7.18293
ltoes -19.0953
1503
root 0.17428 17.7777 0.0242812 11.0555 14.1497 -6.93224
lowerback 11.0907 0.434725 3.1405
upperback -5.22591 1.09405 -0.0568501
thorax -11.887 0.273148 -2.06464
lowerneck -7.49224 -0.15216 4.16076
upperneck 0.777377 -0.376617 -6.40138
head 1.54204 -0.309484 -2.81336
rclavicle 1.98785e-014 1.11319e-014
rhumerus 17.0453 -34.6359 -6.26779
rradius 42.8969
rwrist 15.2719
rhand 3.82687 0.0940525
rfingers 7.12502
rthumb 29.2504 -27.6264
lclavicle 1.98785e-014 1.11319e-014
lhumerus -25.2233 26.7663 21.632
lradius 54.1298
lwrist 26.5332
lhand -18.9932 35.3132
lfingers 7.12502
lthumb 7.31172 65.1668
rfemur -24.0253 -7.2286 27.8673
rtibia 26.6341
rfoot -9.79676 -9.09828
rtoes -9.63576
lfemur -32.9148 -1.44021 -8.567
ltibia 36.9325
lfoot -12.7312 -7.32702
ltoes -19.0475
1504
root 0.1788 17.7805 0.0226189 11.0739 14.4476 -6.94293
lowerback 10.9863 0.443942 3.11819
upperback -5.19415 1.09875 -0.0530716
thorax -11.7875 0.279793 -2.04663
lowerneck -7.56883 -0.144748 4.07768
upperneck 0.768178 -0.361857 -6.38681
head 1.55316 -0.303216 -2.7931
rclavicle 2.34566e-014 -2.14687e-014
rhumerus 17.3262 -34.8084 -6.37116
rradius 42.7918
rwrist 15.4556
rhand 4.02704 0.0972329
rfingers 7.12502
rthumb 29.4415 -27.5897
lclavicle 2.34566e-014 -2.14687e-014
lhumerus -25.4768 26.8371 21.5143
lradius 54.1688
lwrist 26.739
lhand -19.0513 35.3602
lfingers 7.12502
lthumb 7.25559 65.2158
rfemur -23.9706 -7.25265 27.869
rtibia 26.505
rfoot -9.96533 -9.26123
rtoes -8.17468
lfemur -33.0175 -1.58175 -8.54871
ltibia 36.8661
lfoot -12.6895 -7.41383
ltoes -19.4533
1505
root 0.182921 17.7845 0.0227791 11.0587 14.7263 -6.91557
lowerback 10.853 0.482873 3.05545
upperback -5.14237 1.13464 -0.0584319
thorax -11.6464 0.304992 -2.02141
lowerneck -7.49641 -0.18082 3.96302
upperneck 0.665971 -0.403109 -6.344
head 1.50362 -0.321435 -2.7562
rclavicle -5.06901e-015 1.51076e-014
rhumerus 17.511 -34.9107 -6.36931
rradius 42.7162
rwrist 15.5593
rhand 4.0792 0.168409
rfingers 7.12502
rthumb 29.4913 -27.5098
lclavicle -5.06901e-015 1.51076e-014
lhumerus -25.6405 26.9405 21.4667
lradius 54.1781
lwrist 26.9087
lhand -19.2115 35.436
lfingers 7.12502
lthumb 7.10095 65.2969
rfemur -23.873 -7.30695 27.8276
rtibia 26.4101
rfoot -10.2115 -9.3658
rtoes -5.99306
lfemur -33.046 -1.75755 -8.56204
ltibia 36.802
lfoot -12.6237 -7.5649
ltoes -19.2216
1506
root 0.186364 17.786 0.0245804 11.0352 14.9494 -6.95157
lowerback 10.7755 0.565222 3.04971
upperback -5.13942 1.23825 -0.0939011
thorax -11.5894 0.354452 -2.07637
lowerneck -7.43142 -0.236097 3.99648
upperneck 0.610244 -0.480479 -6.3414
head 1.46952 -0.358341 -2.76267
rclavicle 2.21645e-014 -3.97569e-015
rhumerus 17.528 -34.9337 -6.27516
rradius 42.6491
rwrist 15.6189
rhand 4.06475 0.108922
rfingers 7.12502
rthumb 29.4775 -27.5717
lclavicle 2.21645e-014 -3.97569e-015
lhumerus -25.6828 26.8498 21.4537
lradius 54.2222
lwrist 27.2429
lhand -19.682 35.449
lfingers 7.12502
lthumb 6.64678 65.3247
rfemur -23.7883 -7.27535 27.8393
rtibia 26.331
rfoot -10.3793 -9.50807
rtoes -5.12318
lfemur -33.0623 -1.88788 -8.5103
ltibia 36.7546
lfoot -12.6247 -7.62984
ltoes -19.2464
